<svg width="108" height="39" viewBox="0 0 108 39" fill="none" xmlns="http://www.w3.org/2000/svg">
<path d="M49.1758 14.6484C48.9961 14.6484 48.7617 14.6133 48.4727 14.543C48.1875 14.4727 47.9434 14.3887 47.7402 14.291L47.3887 17.5781L47.4414 19.1602L48.7305 18.5684L49.1875 19.3418C49.1445 19.5371 49.0254 19.7773 48.8301 20.0625C48.6387 20.3477 48.4141 20.5957 48.1562 20.8066C47.8984 21.0176 47.6504 21.123 47.4121 21.123C47.127 21.123 46.834 21.0645 46.5332 20.9473C46.2324 20.8262 45.9766 20.6543 45.7656 20.4316C45.5586 20.209 45.4414 19.9551 45.4141 19.6699C45.4062 19.5684 45.4023 19.4922 45.4023 19.4414C45.4023 19.2617 45.416 19.0859 45.4434 18.9141C45.4707 18.7422 45.5156 18.5117 45.5781 18.2227C45.6367 17.9766 45.6797 17.7695 45.707 17.6016H45.7188L45.3672 13.8574L44.7168 13.6934L44.4766 15.3398C44.2266 15.4258 43.9902 15.4688 43.7676 15.4688C43.5449 15.4688 43.3262 15.4238 43.1113 15.334C43.0293 15.084 42.957 14.8027 42.8945 14.4902C42.8281 14.1777 42.7949 13.8848 42.7949 13.6113C42.7949 13.2832 42.8477 13.0254 42.9531 12.8379C43.1562 12.5879 43.4121 12.3809 43.7207 12.2168C44.0332 12.0488 44.332 11.9512 44.6172 11.9238L47.1895 12.5742L49.2285 11.9238C49.4082 12.0176 49.5449 12.1797 49.6387 12.4102C49.7363 12.6406 49.7852 12.8984 49.7852 13.1836C49.7852 13.4844 49.7305 13.7715 49.6211 14.0449C49.5156 14.3145 49.3672 14.5156 49.1758 14.6484ZM57.4082 18.9492C57.3965 19.2344 57.3301 19.5273 57.209 19.8281C57.0918 20.125 56.9551 20.3809 56.7988 20.5957C56.6738 20.7676 56.5215 20.8984 56.3418 20.9883C56.1621 21.0742 55.9609 21.1172 55.7383 21.1172C55.5273 21.1172 55.2891 21.0742 55.0234 20.9883C54.375 20.7812 53.9707 19.877 53.8105 18.2754L52.2402 18.0645C52.3496 18.3223 52.4551 18.7402 52.5566 19.3184C52.6621 19.8965 52.7324 20.4043 52.7676 20.8418C52.6348 20.9316 52.4785 21 52.2988 21.0469C52.1191 21.0938 51.9316 21.1172 51.7363 21.1172C51.4395 21.1172 51.1562 21.0703 50.8867 20.9766C50.6172 20.8828 50.4121 20.7559 50.2715 20.5957C50.3613 20.1582 50.4395 19.8203 50.5059 19.582C50.5723 19.3438 50.6543 19.0938 50.752 18.832C50.6582 18.6406 50.5508 18.127 50.4297 17.291C50.3125 16.4512 50.207 15.5723 50.1133 14.6543C50.0234 13.7324 49.9785 13.1504 49.9785 12.9082L49.9844 12.8379C50.1602 12.5996 50.3965 12.4082 50.6934 12.2637C50.9902 12.1152 51.2969 12.041 51.6133 12.041C51.9727 12.041 52.293 12.1367 52.5742 12.3281L52.0176 15.2402L52.1875 15.3223L53.752 12.0293C53.834 12.0059 53.9453 11.9844 54.0859 11.9648C54.2305 11.9414 54.3789 11.9297 54.5312 11.9297C54.6953 11.9297 54.8965 11.9609 55.1348 12.0234C55.377 12.0859 55.6289 12.1816 55.8906 12.3105C56.1523 12.4355 56.3926 12.5898 56.6113 12.7734C56.6191 13.3594 56.5742 14.0137 56.4766 14.7363C56.3828 15.4551 56.2402 16.1309 56.0488 16.7637C55.8223 17.0996 55.5254 17.4219 55.1582 17.7305C55.2793 17.957 55.4004 18.1641 55.5215 18.3516C55.6465 18.5352 55.7852 18.7031 55.9375 18.8555C56.1484 18.7812 56.416 18.6133 56.7402 18.3516L57.4082 18.9492ZM54.0391 14.2559C53.7734 14.6621 53.457 15.1641 53.0898 15.7617C52.7227 16.3594 52.4727 16.793 52.3398 17.0625L54.1914 16.9336C54.293 16.2734 54.3438 15.6113 54.3438 14.9473C54.3438 14.7012 54.334 14.4863 54.3145 14.3027L54.0391 14.2559ZM63.4668 12.9961C63.9941 15.6094 64.3418 17.4297 64.5098 18.457C64.6816 19.4805 64.7676 20.168 64.7676 20.5195C64.7676 20.5898 64.7637 20.6836 64.7559 20.8008C64.416 21.0117 64.0078 21.1172 63.5312 21.1172C63.2344 21.1172 62.9551 21.0742 62.6934 20.9883C62.4355 20.9023 62.2383 20.7871 62.1016 20.6426L62.5762 19.0488L62.4648 18.5391H62.1484C61.6641 18.5117 61.168 18.4766 60.6602 18.4336C60.5898 19.0156 60.5117 19.4844 60.4258 19.8398C60.3398 20.1953 60.1875 20.498 59.9688 20.748C59.7539 20.9941 59.4492 21.1172 59.0547 21.1172C58.7109 21.1172 58.3926 21.0332 58.0996 20.8652C57.8066 20.6973 57.6055 20.4688 57.4961 20.1797L57.7598 19.2246L58.5332 19.2891L59.5527 14.1621C58.9316 14.0762 58.4824 13.9805 58.2051 13.875C58.2168 13.5352 58.2871 13.1758 58.416 12.7969C58.5488 12.418 58.7285 12.127 58.9551 11.9238C60.3965 12.1621 61.9004 12.5195 63.4668 12.9961ZM62.1602 17.1621L61.5508 14.373L61.0469 14.332C61.0273 14.6719 60.9941 15.1152 60.9473 15.6621C60.9043 16.209 60.8535 16.752 60.7949 17.291L62.1602 17.1621ZM69.6836 14.6602L69.5723 14.5664C69.3262 14.3555 69.1289 14.1699 68.9805 14.0098C68.832 13.8457 68.6934 13.6328 68.5645 13.3711C68.6738 13.0859 68.8477 12.8398 69.0859 12.6328C69.3242 12.4258 69.5918 12.2637 69.8887 12.1465C70.1895 12.0293 70.4902 11.9512 70.791 11.9121C71.1074 12.166 71.3652 12.5273 71.5645 12.9961C71.7676 13.4609 71.8867 13.9277 71.9219 14.3965L69.7598 19.4824C69.9121 19.8379 70.0312 20.2637 70.1172 20.7598C69.9648 20.8809 69.7539 20.9727 69.4844 21.0352C69.2188 21.0977 68.9277 21.1289 68.6113 21.1289C68.2598 21.1289 67.9258 21.0918 67.6094 21.0176C67.293 20.9473 67.0586 20.8516 66.9062 20.7305C66.9414 20.2539 67.041 19.793 67.2051 19.3477L65.6406 14.7598L64.6152 13.459C64.6465 13.1621 64.7402 12.9082 64.8965 12.6973C65.0527 12.4824 65.248 12.3203 65.4824 12.2109C65.7207 12.0977 65.9707 12.041 66.2324 12.041C66.6309 12.041 66.9785 12.1523 67.2754 12.375C67.3379 12.5 67.4785 12.998 67.6973 13.8691C67.916 14.7363 68.125 15.6602 68.3242 16.6406C68.5234 17.6211 68.6465 18.4043 68.6934 18.9902L69.6836 14.6602ZM77.3066 11.9238C77.4902 12.0293 77.6289 12.1973 77.7227 12.4277C77.8164 12.6582 77.8633 12.916 77.8633 13.2012C77.8633 13.5215 77.8066 13.8281 77.6934 14.1211C77.584 14.4141 77.4355 14.6328 77.248 14.7773C76.959 14.75 76.6465 14.6973 76.3105 14.6191C75.9785 14.5371 75.4609 14.4004 74.7578 14.209L74.5 14.1387L74.7285 16.0137C75.1738 15.9629 75.543 15.9121 75.8359 15.8613C76.1289 15.8105 76.4902 15.7402 76.9199 15.6504C76.9316 15.6465 77.0859 15.6133 77.3828 15.5508C77.5391 15.7891 77.6172 16.0859 77.6172 16.4414C77.6172 16.6797 77.5859 16.9102 77.5234 17.1328C77.4609 17.3516 77.3926 17.5 77.3184 17.5781C77.2012 17.5898 77.084 17.5957 76.9668 17.5957C76.5645 17.5957 76.1719 17.5566 75.7891 17.4785C75.4102 17.4004 75.0723 17.2773 74.7754 17.1094L74.6934 19.1895L76.375 19.248L76.8555 18.1348L77.9102 18.2227C77.9688 18.3828 78.0195 18.6309 78.0625 18.9668C78.1094 19.2988 78.1328 19.5996 78.1328 19.8691C77.9766 20.1855 77.7715 20.4531 77.5176 20.6719C77.2676 20.8867 76.9824 21.0352 76.6621 21.1172C76.1543 21.1016 75.5293 21.041 74.7871 20.9355C74.0488 20.8262 73.4629 20.7148 73.0293 20.6016C72.7207 20.2344 72.5391 19.8516 72.4844 19.4531L73.4102 17.0098L71.9863 13.5879C71.9863 13.334 72.082 13.0586 72.2734 12.7617C72.4648 12.4609 72.6875 12.2227 72.9414 12.0469L74.8926 12.4746L77.3066 11.9238ZM84.8418 17.3379C84.8926 17.4785 84.9355 17.6895 84.9707 17.9707C85.0098 18.248 85.0293 18.5371 85.0293 18.8379C85.0293 19.4941 84.9199 20.0391 84.7012 20.4727C84.4863 20.9023 84.1094 21.1172 83.5703 21.1172C83.0078 21.1172 82.3086 20.7852 81.4727 20.1211C81.1055 20.75 80.625 21.082 80.0312 21.1172C79.8711 21.0391 79.7012 20.8926 79.5215 20.6777C79.3418 20.4629 79.1875 20.2246 79.0586 19.9629C78.9297 19.7012 78.8574 19.4629 78.8418 19.248L79.3633 18.5215C79.5117 18.4668 79.7012 18.4395 79.9316 18.4395H80.125C80 17.7168 79.9023 17.0566 79.832 16.459C79.7656 15.8613 79.7012 15.1992 79.6387 14.4727C79.6113 14.1562 79.582 13.8496 79.5508 13.5527C79.5234 13.2559 79.4922 13.0059 79.457 12.8027C79.5312 12.6855 79.6621 12.5684 79.8496 12.4512C80.0371 12.334 80.2598 12.2363 80.5176 12.1582C80.7793 12.0801 81.0469 12.041 81.3203 12.041C81.5078 12.041 81.6777 12.0605 81.8301 12.0996C81.9824 12.1348 82.127 12.1934 82.2637 12.2754L81.6484 18.6035L81.7246 18.6094L83.207 18.8906L83.7637 17.1973L84.8418 17.3379ZM50.4766 32.4199C50.5273 32.6348 50.5527 32.8574 50.5527 33.0879C50.5527 33.5176 50.4648 33.9355 50.2891 34.3418C50.1133 34.748 49.8691 35.1074 49.5566 35.4199C49.2441 35.7285 48.8867 35.9551 48.4844 36.0996C48.2734 36.123 48.0605 36.1348 47.8457 36.1348C47.3691 36.1348 46.8164 36.0977 46.1875 36.0234C45.5586 35.9492 45.0176 35.8477 44.5645 35.7188C44.1152 35.5859 43.8906 35.4395 43.8906 35.2793C43.8906 35.2168 43.9043 35.1387 43.9316 35.0449C44.0254 34.7012 44.1426 34.2969 44.2832 33.832C44.1895 33.6445 44.082 33.1328 43.9609 32.2969C43.8438 31.457 43.7383 30.5762 43.6445 29.6543C43.5547 28.7324 43.5098 28.1504 43.5098 27.9082C43.5098 27.8691 43.5117 27.8457 43.5156 27.8379C43.6914 27.5996 43.9258 27.4082 44.2188 27.2637C44.5156 27.1152 44.8223 27.041 45.1387 27.041C45.502 27.041 45.8242 27.1367 46.1055 27.3281L45.5488 30.2402L45.7188 30.3223L47.0488 27.0293C47.3262 26.9629 47.5801 26.9297 47.8105 26.9297C47.9746 26.9297 48.1758 26.9609 48.4141 27.0234C48.6562 27.082 48.9102 27.1758 49.1758 27.3047C49.4414 27.4297 49.6855 27.5859 49.9082 27.7734C49.8965 28.2969 49.8398 28.9082 49.7383 29.6074C49.6406 30.3066 49.5176 30.998 49.3691 31.6816L49.293 32.0215C49.9531 32.127 50.3477 32.2598 50.4766 32.4199ZM47.3359 29.2559C47.0469 29.8379 46.6719 30.6289 46.2109 31.6289C46.4531 31.6367 46.8789 31.6543 47.4883 31.6816C47.5195 31.2559 47.5469 30.8086 47.5703 30.3398C47.5938 29.8711 47.6074 29.5254 47.6113 29.3027L47.3359 29.2559ZM48.0742 34.6992C48.1172 34.5 48.1387 34.3984 48.1387 34.3945C48.1855 34.1797 48.2168 34.0117 48.2324 33.8906C48.252 33.7656 48.2617 33.6348 48.2617 33.498C48.2617 33.3926 48.2559 33.2695 48.2441 33.1289L45.8945 32.6426C45.8164 33.1113 45.7598 33.5586 45.7246 33.9844C46.0645 34.1797 46.4473 34.3418 46.873 34.4707C47.2988 34.5996 47.6992 34.6758 48.0742 34.6992ZM56.7168 27.9961C57.2441 30.6094 57.5918 32.4297 57.7598 33.457C57.9316 34.4805 58.0176 35.168 58.0176 35.5195C58.0176 35.5898 58.0137 35.6836 58.0059 35.8008C57.666 36.0117 57.2578 36.1172 56.7812 36.1172C56.4844 36.1172 56.2051 36.0742 55.9434 35.9883C55.6855 35.9023 55.4883 35.7871 55.3516 35.6426L55.8262 34.0488L55.7148 33.5391H55.3984C54.9141 33.5117 54.418 33.4766 53.9102 33.4336C53.8398 34.0156 53.7617 34.4844 53.6758 34.8398C53.5898 35.1953 53.4375 35.498 53.2188 35.748C53.0039 35.9941 52.6992 36.1172 52.3047 36.1172C51.9609 36.1172 51.6426 36.0332 51.3496 35.8652C51.0566 35.6973 50.8555 35.4688 50.7461 35.1797L51.0098 34.2246L51.7832 34.2891L52.8027 29.1621C52.1816 29.0762 51.7324 28.9805 51.4551 28.875C51.4668 28.5352 51.5371 28.1758 51.666 27.7969C51.7988 27.418 51.9785 27.127 52.2051 26.9238C53.6465 27.1621 55.1504 27.5195 56.7168 27.9961ZM55.4102 32.1621L54.8008 29.373L54.2969 29.332C54.2773 29.6719 54.2441 30.1152 54.1973 30.6621C54.1543 31.209 54.1035 31.752 54.0449 32.291L55.4102 32.1621ZM61.1523 29.1445C61.1719 29.3867 61.1816 29.6562 61.1816 29.9531C61.1816 30.5586 61.1523 31.2734 61.0938 32.0977C61.0391 32.9219 60.9805 33.5977 60.918 34.125C61.0664 34.1055 61.2441 34.0586 61.4512 33.9844C61.6582 33.9102 62.0039 33.7793 62.4883 33.5918C62.9023 33.4316 63.2148 33.3125 63.4258 33.2344L63.8652 34.2129C63.7207 34.459 63.498 34.7207 63.1973 34.998C62.8965 35.2754 62.543 35.5195 62.1367 35.7305C61.7344 35.9414 61.3184 36.0703 60.8887 36.1172C60.7051 36.1172 60.4883 36.0488 60.2383 35.9121C59.9922 35.7754 59.7559 35.6191 59.5293 35.4434C59.4004 35.3418 59.3066 35.248 59.248 35.1621C59.1895 35.0723 59.1523 34.9766 59.1367 34.875C59.0898 33.9336 59.043 33.1113 58.9961 32.4082C58.8906 30.7598 58.7871 29.6699 58.6855 29.1387C58.6621 29.0059 58.6504 28.7812 58.6504 28.4648C58.6973 28.2852 58.8086 28.0918 58.9844 27.8848C59.1641 27.6777 59.375 27.4883 59.6172 27.3164C59.8594 27.1406 60.0957 27.0098 60.3262 26.9238C60.5098 26.959 60.7637 27.0332 61.0879 27.1465C61.416 27.2598 61.668 27.3613 61.8438 27.4512L63.6953 27.3223C63.7461 27.5645 63.7715 27.8027 63.7715 28.0371C63.7715 28.3809 63.7227 28.7012 63.625 28.998C63.5312 29.291 63.418 29.5332 63.2852 29.7246C63.1562 29.916 63.041 30.0352 62.9395 30.082C62.377 29.8477 61.8281 29.4922 61.293 29.0156L61.1523 29.1445ZM71.8516 33.9492C71.8516 34.2344 71.7969 34.5273 71.6875 34.8281C71.5781 35.125 71.4492 35.3809 71.3008 35.5957C71.1836 35.7676 71.0352 35.8965 70.8555 35.9824C70.6758 36.0684 70.4746 36.1113 70.252 36.1113C70.0293 36.1113 69.791 36.0703 69.5371 35.9883C69.3184 35.9219 69.1328 35.7871 68.9805 35.584C68.8281 35.3809 68.6934 35.127 68.5762 34.8223C68.4238 34.4121 68.3027 33.9023 68.2129 33.293C67.7598 33.2578 67.3809 33.2246 67.0762 33.1934C67.2598 34.2129 67.375 35.1113 67.4219 35.8887C67.1875 36.041 66.8418 36.1172 66.3848 36.1172C66.041 36.1172 65.7324 36.0742 65.459 35.9883C65.1895 35.9023 64.9746 35.7852 64.8145 35.6367C64.8418 35.0742 64.916 34.4609 65.0371 33.7969C65.1582 33.1328 65.293 32.5859 65.4414 32.1562C65.2969 31.7227 65.1699 31.2285 65.0605 30.6738C64.9551 30.1152 64.8379 29.4355 64.709 28.6348L64.5742 27.8027C64.6484 27.6855 64.7793 27.5684 64.9668 27.4512C65.1543 27.334 65.377 27.2363 65.6348 27.1582C65.8965 27.0801 66.1641 27.041 66.4375 27.041C66.8281 27.041 67.1523 27.1191 67.4102 27.2754L66.9883 32.1621L67.6094 32.0918C67.8555 31.627 68.1055 31.0918 68.3594 30.4863C68.6172 29.877 68.7832 29.4043 68.8574 29.0684L68.0312 28.7754C68.0781 28.3418 68.1875 27.957 68.3594 27.6211C68.5352 27.2812 68.7578 27.0488 69.0273 26.9238C69.2188 26.9238 69.4551 26.959 69.7363 27.0293C70.0176 27.0996 70.2988 27.2129 70.5801 27.3691C70.8652 27.5254 71.1016 27.7227 71.2891 27.9609C71.2266 28.4961 70.9961 29.1406 70.5977 29.8945C70.2031 30.6445 69.75 31.3809 69.2383 32.1035C69.6875 32.9707 70.0645 33.5547 70.3691 33.8555C70.5918 33.7773 70.8555 33.6094 71.1602 33.3516L71.8516 33.9492ZM78.9941 27.7734C79.0098 27.9609 79.0176 28.1914 79.0176 28.4648C79.0176 29.1523 78.9609 29.8867 78.8477 30.668C78.7383 31.4492 78.5859 32.1133 78.3906 32.6602C78.2891 32.7773 78.1445 32.9199 77.957 33.0879C77.7734 33.252 77.5801 33.3965 77.377 33.5215C77.1777 33.6465 77.0059 33.709 76.8613 33.709C76.6621 33.7129 76.3301 33.6719 75.8652 33.5859C75.4043 33.5 75.0039 33.4043 74.6641 33.2988L74.875 34.3477L76.082 34.4238L76.2461 35.1504C76.1719 35.3027 76.0312 35.4551 75.8242 35.6074C75.6211 35.7559 75.3789 35.8789 75.0977 35.9766C74.8164 36.0742 74.5273 36.123 74.2305 36.123C73.9883 36.123 73.7715 36.0762 73.5801 35.9824C73.3926 35.8848 73.2441 35.7617 73.1348 35.6133C73.0293 35.4648 72.9766 35.3145 72.9766 35.1621C72.9766 34.9863 72.9902 34.6543 73.0176 34.166C73.0488 33.6738 73.0879 33.332 73.1348 33.1406C73.041 32.9531 72.9336 32.4883 72.8125 31.7461C72.6953 31.0039 72.5898 30.2324 72.4961 29.4316C72.4062 28.627 72.3613 28.1172 72.3613 27.9023L72.3672 27.8379C72.543 27.5996 72.7793 27.4082 73.0762 27.2637C73.373 27.1152 73.6797 27.041 73.9961 27.041C74.3555 27.041 74.6758 27.1367 74.957 27.3281L74.4004 30.2402L74.5703 30.3223L76.1348 27.0293C76.2168 27.0059 76.3281 26.9844 76.4688 26.9648C76.6133 26.9414 76.7617 26.9297 76.9141 26.9297C77.0781 26.9297 77.2793 26.9609 77.5176 27.0234C77.7598 27.0859 78.0117 27.1816 78.2734 27.3105C78.5352 27.4355 78.7754 27.5898 78.9941 27.7734ZM76.5098 32.2617C76.6582 31.4219 76.7324 30.6797 76.7324 30.0352C76.7324 29.7852 76.7207 29.541 76.6973 29.3027L76.4219 29.2559C76.1367 29.6895 75.8242 30.1816 75.4844 30.7324C75.1484 31.2793 74.9219 31.6777 74.8047 31.9277C74.8711 31.9551 74.9668 31.998 75.0918 32.0566C75.3496 32.1777 75.5703 32.2754 75.7539 32.3496C75.9375 32.4199 76.0977 32.4551 76.2344 32.4551C76.3984 32.4551 76.4902 32.3906 76.5098 32.2617ZM85.2637 27.9961C85.791 30.6094 86.1387 32.4297 86.3066 33.457C86.4785 34.4805 86.5645 35.168 86.5645 35.5195C86.5645 35.5898 86.5605 35.6836 86.5527 35.8008C86.2129 36.0117 85.8047 36.1172 85.3281 36.1172C85.0312 36.1172 84.752 36.0742 84.4902 35.9883C84.2324 35.9023 84.0352 35.7871 83.8984 35.6426L84.373 34.0488L84.2617 33.5391H83.9453C83.4609 33.5117 82.9648 33.4766 82.457 33.4336C82.3867 34.0156 82.3086 34.4844 82.2227 34.8398C82.1367 35.1953 81.9844 35.498 81.7656 35.748C81.5508 35.9941 81.2461 36.1172 80.8516 36.1172C80.5078 36.1172 80.1895 36.0332 79.8965 35.8652C79.6035 35.6973 79.4023 35.4688 79.293 35.1797L79.5566 34.2246L80.3301 34.2891L81.3496 29.1621C80.7285 29.0762 80.2793 28.9805 80.002 28.875C80.0137 28.5352 80.084 28.1758 80.2129 27.7969C80.3457 27.418 80.5254 27.127 80.752 26.9238C82.1934 27.1621 83.6973 27.5195 85.2637 27.9961ZM83.957 32.1621L83.3477 29.373L82.8438 29.332C82.8242 29.6719 82.791 30.1152 82.7441 30.6621C82.7012 31.209 82.6504 31.752 82.5918 32.291L83.957 32.1621ZM89.6992 29.1445C89.7188 29.3867 89.7285 29.6562 89.7285 29.9531C89.7285 30.5586 89.6992 31.2734 89.6406 32.0977C89.5859 32.9219 89.5273 33.5977 89.4648 34.125C89.6133 34.1055 89.791 34.0586 89.998 33.9844C90.2051 33.9102 90.5508 33.7793 91.0352 33.5918C91.4492 33.4316 91.7617 33.3125 91.9727 33.2344L92.4121 34.2129C92.2676 34.459 92.0449 34.7207 91.7441 34.998C91.4434 35.2754 91.0898 35.5195 90.6836 35.7305C90.2812 35.9414 89.8652 36.0703 89.4355 36.1172C89.252 36.1172 89.0352 36.0488 88.7852 35.9121C88.5391 35.7754 88.3027 35.6191 88.0762 35.4434C87.9473 35.3418 87.8535 35.248 87.7949 35.1621C87.7363 35.0723 87.6992 34.9766 87.6836 34.875C87.6367 33.9336 87.5898 33.1113 87.543 32.4082C87.4375 30.7598 87.334 29.6699 87.2324 29.1387C87.209 29.0059 87.1973 28.7812 87.1973 28.4648C87.2441 28.2852 87.3555 28.0918 87.5312 27.8848C87.7109 27.6777 87.9219 27.4883 88.1641 27.3164C88.4062 27.1406 88.6426 27.0098 88.873 26.9238C89.0566 26.959 89.3105 27.0332 89.6348 27.1465C89.9629 27.2598 90.2148 27.3613 90.3906 27.4512L92.2422 27.3223C92.293 27.5645 92.3184 27.8027 92.3184 28.0371C92.3184 28.3809 92.2695 28.7012 92.1719 28.998C92.0781 29.291 91.9648 29.5332 91.832 29.7246C91.7031 29.916 91.5879 30.0352 91.4863 30.082C90.9238 29.8477 90.375 29.4922 89.8398 29.0156L89.6992 29.1445ZM100.398 33.9492C100.398 34.2344 100.344 34.5273 100.234 34.8281C100.125 35.125 99.9961 35.3809 99.8477 35.5957C99.7305 35.7676 99.582 35.8965 99.4023 35.9824C99.2227 36.0684 99.0215 36.1113 98.7988 36.1113C98.5762 36.1113 98.3379 36.0703 98.084 35.9883C97.8652 35.9219 97.6797 35.7871 97.5273 35.584C97.375 35.3809 97.2402 35.127 97.123 34.8223C96.9707 34.4121 96.8496 33.9023 96.7598 33.293C96.3066 33.2578 95.9277 33.2246 95.623 33.1934C95.8066 34.2129 95.9219 35.1113 95.9688 35.8887C95.7344 36.041 95.3887 36.1172 94.9316 36.1172C94.5879 36.1172 94.2793 36.0742 94.0059 35.9883C93.7363 35.9023 93.5215 35.7852 93.3613 35.6367C93.3887 35.0742 93.4629 34.4609 93.584 33.7969C93.7051 33.1328 93.8398 32.5859 93.9883 32.1562C93.8438 31.7227 93.7168 31.2285 93.6074 30.6738C93.502 30.1152 93.3848 29.4355 93.2559 28.6348L93.1211 27.8027C93.1953 27.6855 93.3262 27.5684 93.5137 27.4512C93.7012 27.334 93.9238 27.2363 94.1816 27.1582C94.4434 27.0801 94.7109 27.041 94.9844 27.041C95.375 27.041 95.6992 27.1191 95.957 27.2754L95.5352 32.1621L96.1562 32.0918C96.4023 31.627 96.6523 31.0918 96.9062 30.4863C97.1641 29.877 97.3301 29.4043 97.4043 29.0684L96.5781 28.7754C96.625 28.3418 96.7344 27.957 96.9062 27.6211C97.082 27.2812 97.3047 27.0488 97.5742 26.9238C97.7656 26.9238 98.002 26.959 98.2832 27.0293C98.5645 27.0996 98.8457 27.2129 99.127 27.3691C99.4121 27.5254 99.6484 27.7227 99.8359 27.9609C99.7734 28.4961 99.543 29.1406 99.1445 29.8945C98.75 30.6445 98.2969 31.3809 97.7852 32.1035C98.2344 32.9707 98.6113 33.5547 98.916 33.8555C99.1387 33.7773 99.4023 33.6094 99.707 33.3516L100.398 33.9492Z" fill="#FFBE83"/>
<g clip-path="url(#clip0_6_25)">
<path d="M30.3915 39H8.61769C8.05582 38.9994 7.51713 38.7759 7.11977 38.3787C6.72241 37.9814 6.49883 37.4428 6.49807 36.8809V17.3544C6.4894 17.1291 6.3248 11.2964 10.1563 7.32107C12.4088 4.98601 15.5564 3.80261 19.5127 3.80261C23.4689 3.80261 26.6166 4.98601 28.8656 7.32107C32.6937 11.297 32.5181 17.1303 32.5088 17.3769L32.5117 36.8809C32.5111 37.443 32.2875 37.9817 31.89 38.379C31.4925 38.7763 30.9535 38.9997 30.3915 39ZM19.5115 4.95772C15.8828 4.95772 13.0164 6.02042 10.9909 8.11637C7.49839 11.7319 7.64798 17.2787 7.65029 17.3342V36.8827C7.65059 37.1383 7.75233 37.3834 7.93316 37.5641C8.11399 37.7449 8.35915 37.8465 8.61481 37.8466H30.3886C30.6442 37.8463 30.8892 37.7446 31.0699 37.5639C31.2506 37.3832 31.3523 37.1382 31.3526 36.8827V17.3561C31.3526 17.2799 31.5126 11.733 28.0253 8.11521C26.0038 6.01984 23.1392 4.95772 19.5115 4.95772Z" fill="#FFBE83"/>
<path d="M19.9441 36.6332C15.633 36.6438 11.3243 36.4255 7.03635 35.9794L7.10507 35.4059C7.22751 35.4203 19.5225 36.8602 31.8989 35.4059L31.9671 35.9794C27.9754 36.4289 23.961 36.6472 19.9441 36.6332Z" fill="#FFBE83"/>
<path d="M7.13798 22.5056L7.00284 21.3585C19.4815 19.8904 31.877 21.3447 32.0012 21.3585L31.8637 22.5056C31.7407 22.4906 19.4757 21.0576 7.13798 22.5056Z" fill="#FFBE83"/>
<path d="M27.6591 33.8303H11.3767C10.8913 33.8295 10.426 33.6363 10.0829 33.293C9.73981 32.9496 9.54688 32.4842 9.54642 31.9988V25.8975C9.54688 25.4123 9.73985 24.947 10.083 24.6039C10.4261 24.2607 10.8914 24.0677 11.3767 24.0673H27.6591C28.1444 24.0677 28.6097 24.2607 28.9528 24.6039C29.296 24.947 29.4889 25.4123 29.4894 25.8975V31.9988C29.4889 32.4842 29.296 32.9496 28.9529 33.293C28.6098 33.6363 28.1445 33.8295 27.6591 33.8303ZM11.3767 24.6471C11.0445 24.6474 10.7261 24.7795 10.4912 25.0144C10.2564 25.2493 10.1243 25.5677 10.124 25.8999V32.0011C10.1243 32.3334 10.2563 32.652 10.4911 32.887C10.726 33.1221 11.0444 33.2544 11.3767 33.255H27.6591C27.9914 33.2544 28.3098 33.1221 28.5447 32.887C28.7795 32.652 28.9115 32.3334 28.9118 32.0011V25.8975C28.9115 25.5654 28.7795 25.247 28.5446 25.0121C28.3097 24.7772 27.9913 24.6451 27.6591 24.6448L11.3767 24.6471Z" fill="#FFBE83"/>
<path d="M29.2006 26.6686H9.83517V27.2462H29.2006V26.6686Z" fill="#FFBE83"/>
<path d="M27.6268 32.5453H23.3234V29.9133H27.6268V32.5453ZM23.901 31.9677H27.0492V30.4909H23.901V31.9677Z" fill="#FFBE83"/>
<path d="M11.9866 29.2688C11.7484 29.2685 11.5201 29.1738 11.3516 29.0054C11.1832 28.8371 11.0883 28.6089 11.0879 28.3707L11.1116 28.2552L11.9866 26.2291L12.8852 28.3701C12.8849 28.6084 12.7902 28.8368 12.6217 29.0052C12.4532 29.1737 12.2248 29.2685 11.9866 29.2688ZM11.6695 28.4215C11.6816 28.497 11.7202 28.5658 11.7784 28.6155C11.8366 28.6651 11.9106 28.6924 11.9871 28.6924C12.0637 28.6924 12.1377 28.6651 12.1959 28.6155C12.2541 28.5658 12.2927 28.497 12.3048 28.4215L11.9871 27.6857L11.6695 28.4215Z" fill="#FFBE83"/>
<path d="M15.7465 4.43503C15.6422 3.25855 15.9788 2.08534 16.6908 1.14299C17.023 0.777601 17.4289 0.486886 17.8819 0.290053C18.3348 0.0932194 18.8243 -0.00524372 19.3181 0.00116946C19.8072 -0.0367356 20.2988 0.0275689 20.7617 0.190045C21.2245 0.352522 21.6485 0.609595 22.0066 0.944879C22.8277 1.86006 23.2889 3.04214 23.3044 4.2716H22.1492C22.1327 3.35373 21.797 2.4703 21.1997 1.77311C20.9529 1.54753 20.6615 1.37609 20.3444 1.26986C20.0273 1.16363 19.6915 1.12495 19.3585 1.15628C19.0231 1.14557 18.6893 1.20663 18.3794 1.33543C18.0695 1.46422 17.7907 1.65775 17.5617 1.90304C17.0631 2.60439 16.8272 3.45882 16.8952 4.31665L15.7465 4.43503Z" fill="#FFBE83"/>
<line x1="37.5" y1="10" x2="37.5" y2="37" stroke="#FFBE83"/>
</g>
<defs>
<clipPath id="clip0_6_25">
<rect width="39" height="39" fill="white"/>
</clipPath>
</defs>
</svg>
